<svg width="16" height="16" viewBox="0 0 16 16" fill="none" xmlns="http://www.w3.org/2000/svg">
<path d="M12.6262 14.0406C13.0168 14.4311 13.6499 14.4311 14.0404 14.0406C14.431 13.65 14.431 13.0169 14.0404 12.6263L12.6262 14.0406ZM11 7.00012C11 9.20926 9.20914 11.0001 7 11.0001V13.0001C10.3137 13.0001 13 10.3138 13 7.00012H11ZM7 11.0001C4.79086 11.0001 3 9.20926 3 7.00012H1C1 10.3138 3.68629 13.0001 7 13.0001V11.0001ZM3 7.00012C3 4.79098 4.79086 3.00012 7 3.00012V1.00012C3.68629 1.00012 1 3.68641 1 7.00012H3ZM7 3.00012C9.20914 3.00012 11 4.79098 11 7.00012H13C13 3.68641 10.3137 1.00012 7 1.00012V3.00012ZM14.0404 12.6263L11.2487 9.83463L9.83451 11.2488L12.6262 14.0406L14.0404 12.6263Z" fill="#4542D2"/>
</svg>
