<svg width="170" height="49" viewBox="0 0 170 49" fill="none" xmlns="http://www.w3.org/2000/svg">
<path d="M65.9756 16.4098C65.9756 13.5639 67.8728 11.5244 70.1495 11.5244C70.9084 11.5244 71.525 11.809 72.0467 12.141C72.189 12.2359 72.3787 12.2833 72.521 12.2833C72.7108 12.2833 72.8056 12.141 72.9953 11.5244H73.4697L73.5645 15.3663H73.0902C72.4736 13.1371 71.2404 12.141 70.1021 12.141C68.3471 12.141 67.5882 13.9434 67.5882 16.3624C67.5882 18.639 68.4894 20.5363 70.2918 20.5363C71.8096 20.5363 72.7108 19.5877 73.1376 17.5007H73.8017C73.4222 19.9671 71.9993 21.2952 70.1495 21.2952C67.778 21.2477 65.9756 19.1133 65.9756 16.4098Z" fill="#828282"/>
<path d="M75.0352 17.8804C75.0352 16.0305 76.4107 14.4653 78.0233 14.4653C79.6834 14.4653 80.964 15.9831 80.964 17.8329C80.964 19.7302 79.6359 21.2479 77.9759 21.2479C76.3158 21.2479 75.0352 19.7302 75.0352 17.8804ZM79.5411 17.8804C79.5411 16.2203 78.9719 15.0345 77.9759 15.0345C76.9324 15.0345 76.4581 16.1728 76.4581 17.8329C76.4581 19.493 77.0273 20.6788 78.0233 20.6788C79.0193 20.6788 79.5411 19.5404 79.5411 17.8804Z" fill="#828282"/>
<path d="M81.9127 20.4415H82.1024C82.6716 20.4415 82.7664 20.2993 82.7664 19.7301V12.9949C82.7664 12.4257 82.6716 12.2834 82.1024 12.2834H81.8652V11.6668L83.9996 11.4297V14.6076L83.8573 16.3151H83.9522C84.4265 15.319 85.138 14.5601 86.0866 14.5601C87.2249 14.5601 87.8889 15.2242 87.8889 16.6945V19.7301C87.8889 20.2993 88.0312 20.4415 88.6004 20.4415H88.7427V21.0581H85.7546V20.4415H86.0391C86.6083 20.4415 86.7032 20.2993 86.7032 19.7301V16.7419C86.7032 15.8882 86.4186 15.4139 85.7546 15.4139C84.8059 15.4139 84.047 16.7894 84.047 18.07V19.7301C84.047 20.2993 84.1893 20.4415 84.7585 20.4415H85.0431V21.0581H82.0075V20.4415H81.9127Z" fill="#828282"/>
<path d="M89.5488 17.8804C89.5488 15.8409 91.0192 14.418 92.4895 14.418C93.865 14.418 95.0982 15.5563 95.0982 17.4535C95.0982 17.5958 95.0982 17.833 95.0508 18.0227H90.8769C90.9243 19.4931 91.5883 20.4417 92.6793 20.4417C93.4382 20.4417 94.0548 20.0622 94.6239 19.3033L95.0508 19.5879C94.3868 20.584 93.5804 21.2006 92.3472 21.2006C90.7346 21.248 89.5488 19.9674 89.5488 17.8804ZM93.1061 17.4535C93.5804 17.4535 93.7227 17.3587 93.7227 16.9792C93.7227 15.7935 93.2484 15.082 92.4421 15.082C91.6358 15.082 90.9718 15.8883 90.9243 17.4535H93.1061Z" fill="#828282"/>
<path d="M96.1417 20.4415H96.3789C96.9481 20.4415 97.0429 20.2992 97.0429 19.73V16.0304C97.0429 15.4612 96.9481 15.319 96.3789 15.319H96.1417V14.7024L98.2761 14.5601L98.1338 16.315H98.2287C98.703 15.319 99.4145 14.5601 100.363 14.5601C101.501 14.5601 102.165 15.2241 102.165 16.6944V19.73C102.165 20.2992 102.26 20.4415 102.829 20.4415H102.972V21.0581H99.9836V20.4415H100.221C100.79 20.4415 100.885 20.2992 100.885 19.73V16.7419C100.885 15.8881 100.6 15.4138 99.9362 15.4138C98.9876 15.4138 98.2287 16.7893 98.2287 18.0699V19.73C98.2287 20.2992 98.371 20.4415 98.8927 20.4415H99.1299V21.0581H96.0469V20.4415H96.1417Z" fill="#828282"/>
<path d="M108.285 13.1373C108.048 12.5207 107.716 12.331 106.909 12.2836V11.667H110.988V12.2836H110.466C109.992 12.2836 109.802 12.4259 109.802 12.663C109.802 12.9002 109.85 13.1848 109.992 13.5168L111.984 19.2559L113.882 13.9437C114.024 13.4694 114.119 13.0899 114.119 12.7579C114.119 12.4259 113.882 12.2836 113.407 12.2836H113.028V11.667H116.348V12.2362C115.494 12.331 115.21 12.6156 114.878 13.5168L111.937 21.2955H111.32L108.285 13.1373Z" fill="#828282"/>
<path d="M115.541 17.8804C115.541 15.8409 117.011 14.418 118.482 14.418C119.857 14.418 121.09 15.5563 121.09 17.4535C121.09 17.5958 121.09 17.833 121.043 18.0227H116.869C116.917 19.4931 117.581 20.4417 118.671 20.4417C119.43 20.4417 120.047 20.0622 120.616 19.3033L121.043 19.5879C120.379 20.584 119.573 21.2006 118.339 21.2006C116.727 21.248 115.541 19.9674 115.541 17.8804ZM119.098 17.4535C119.573 17.4535 119.715 17.3587 119.715 16.9792C119.715 15.7935 119.241 15.082 118.434 15.082C117.628 15.082 116.964 15.8883 116.917 17.4535H119.098Z" fill="#828282"/>
<path d="M122.846 19.3032V15.319H121.85V14.8447C122.988 14.6076 123.367 13.8487 123.51 12.0938H124.079V14.7024H125.929V15.3665H124.079V19.2558C124.079 20.0621 124.316 20.4416 124.838 20.4416C125.359 20.4416 125.739 19.9673 125.786 18.8289H126.356C126.356 20.3941 125.644 21.2953 124.601 21.2953C123.51 21.2479 122.846 20.6313 122.846 19.3032Z" fill="#828282"/>
<path d="M127.209 17.8804C127.209 15.8409 128.679 14.418 130.15 14.418C131.525 14.418 132.758 15.5563 132.758 17.4535C132.758 17.5958 132.758 17.833 132.711 18.0227H128.537C128.584 19.4931 129.248 20.4417 130.339 20.4417C131.098 20.4417 131.715 20.0622 132.284 19.3033L132.711 19.5879C132.047 20.584 131.241 21.2006 130.007 21.2006C128.395 21.248 127.209 19.9674 127.209 17.8804ZM130.814 17.4535C131.288 17.4535 131.43 17.3587 131.43 16.9792C131.43 15.7935 130.956 15.082 130.15 15.082C129.343 15.082 128.679 15.8883 128.632 17.4535H130.814Z" fill="#828282"/>
<path d="M133.802 20.4415H134.039C134.609 20.4415 134.703 20.2993 134.703 19.7301V16.0305C134.703 15.4613 134.609 15.319 134.039 15.319H133.802V14.7024L135.937 14.5601L135.747 16.7419H135.842C136.364 15.3664 137.075 14.5127 137.929 14.5127C138.735 14.5127 139.162 14.987 139.162 15.6985C139.162 16.3151 138.783 16.7419 138.308 16.7419C137.834 16.7419 137.549 16.4099 137.549 16.0779C137.549 15.7933 137.692 15.5562 137.881 15.4139C137.976 15.319 137.976 15.1767 137.787 15.1767C136.885 15.1767 135.889 17.1688 135.889 18.5917V19.7301C135.889 20.2993 136.032 20.4415 136.553 20.4415H136.98V21.0582H133.755V20.4415H133.802Z" fill="#828282"/>
<path d="M139.636 19.6825C139.636 18.4968 140.822 17.7379 143.525 17.1687V16.979C143.525 15.6983 143.146 15.1766 142.197 15.1766C141.675 15.1766 141.248 15.3189 141.154 15.4612C141.106 15.5086 141.059 15.6035 141.201 15.6983C141.438 15.8406 141.628 16.0303 141.628 16.3624C141.628 16.7892 141.296 17.1213 140.822 17.1213C140.3 17.1213 139.968 16.7418 139.968 16.2675C139.968 15.3189 140.964 14.6074 142.434 14.6074C143.905 14.6074 144.806 15.3663 144.806 16.9315V20.0145C144.806 20.394 144.948 20.4888 145.138 20.4888C145.28 20.4888 145.422 20.394 145.612 20.2517L145.897 20.5837C145.517 21.0106 145.185 21.2477 144.758 21.2477C144.189 21.2477 143.715 20.7734 143.715 19.9671H143.62C143.146 20.7734 142.434 21.2952 141.438 21.2952C140.395 21.2003 139.636 20.6786 139.636 19.6825ZM143.478 18.4019V17.643C141.391 18.0699 140.964 18.6865 140.964 19.4454C140.964 19.9671 141.248 20.3466 141.818 20.3466C142.576 20.394 143.478 19.6825 143.478 18.4019Z" fill="#828282"/>
<path d="M146.465 20.4415H146.702C147.271 20.4415 147.366 20.2992 147.366 19.73V16.0304C147.366 15.4612 147.271 15.319 146.702 15.319H146.465V14.7024L148.599 14.5601L148.457 16.315H148.552C149.026 15.319 149.738 14.5601 150.686 14.5601C151.825 14.5601 152.489 15.2241 152.489 16.6944V19.73C152.489 20.2992 152.583 20.4415 153.153 20.4415H153.295V21.0581H150.307V20.4415H150.591C151.161 20.4415 151.255 20.2992 151.255 19.73V16.7419C151.255 15.8881 150.971 15.4138 150.307 15.4138C149.358 15.4138 148.599 16.7893 148.599 18.0699V19.73C148.599 20.2992 148.742 20.4415 149.311 20.4415H149.548V21.0581H146.465V20.4415Z" fill="#828282"/>
<path d="M154.291 18.5442H154.67C155.002 19.6352 155.856 20.6312 157.089 20.6312C157.896 20.6312 158.37 20.2518 158.37 19.6352C158.37 19.066 157.991 18.7814 156.615 18.4494C155.24 18.0699 154.386 17.6431 154.386 16.3624C154.386 15.2715 155.192 14.5601 156.378 14.5601C157.232 14.5601 157.611 14.9395 157.991 14.9395C158.18 14.9395 158.323 14.8446 158.465 14.5601H158.844V16.8842H158.418C158.18 16.1253 157.469 15.1292 156.283 15.1292C155.667 15.1292 155.24 15.4612 155.24 15.983C155.24 16.5522 155.714 16.7893 156.9 17.1213C158.56 17.5482 159.271 18.0699 159.271 19.2557C159.271 20.4889 158.37 21.2004 157.042 21.2004C156.093 21.2004 155.429 20.6786 155.145 20.6786C154.955 20.6786 154.813 20.8209 154.67 21.2004H154.291V18.5442Z" fill="#828282"/>
<path d="M65.502 38.5125H66.3083C67.162 38.5125 67.5415 38.3228 67.5415 37.469V27.2714C67.5415 26.4176 67.2095 26.2279 66.3083 26.2279H65.502V25.2793H71.668C74.8933 25.2793 77.2174 26.4176 77.2174 28.7892C77.2174 30.7338 75.415 31.6825 73.7549 32.0145V32.1568C76.1739 32.6311 77.6442 33.4848 77.6442 35.5718C77.6442 37.8959 75.2253 39.4611 72.0474 39.4611H65.502V38.5125ZM71.4782 31.7299C73.9921 31.7299 74.8933 30.639 74.8933 28.9315C74.8933 27.1291 73.8023 26.2279 71.5731 26.2279H70.7668C69.913 26.2279 69.5336 26.4176 69.5336 27.2714V31.6825H71.4782V31.7299ZM72.0474 38.5125C74.3241 38.5125 75.3201 37.3742 75.3201 35.6192C75.3201 33.7694 74.2767 32.6311 71.8102 32.6311H69.581V37.469C69.581 38.3228 69.913 38.5125 70.8142 38.5125H72.0474Z" fill="#AF1F23"/>
<path d="M79.3044 38.5123H79.6364C80.4427 38.5123 80.585 38.3226 80.585 37.4689V31.872C80.585 31.0183 80.3953 30.7811 79.6364 30.7811H79.1621V29.8799L82.4823 29.6428V37.4689C82.4823 38.3226 82.672 38.5123 83.4783 38.5123H83.7155V39.461H79.3518V38.5123H79.3044ZM79.921 26.4175C79.921 25.6586 80.5376 25.042 81.2491 25.042C82.008 25.042 82.6246 25.706 82.6246 26.4175C82.6246 27.1764 82.008 27.793 81.2491 27.793C80.585 27.793 79.921 27.1289 79.921 26.4175Z" fill="#AF1F23"/>
<path d="M85.043 34.6704C85.043 31.872 87.0825 29.5005 89.5489 29.5005C92.0153 29.5005 94.0074 31.7772 94.0074 34.623C94.0074 37.4689 91.9679 39.793 89.5015 39.793C86.9876 39.793 85.043 37.5163 85.043 34.6704ZM91.8256 34.6704C91.8256 32.1566 91.0193 30.4017 89.454 30.4017C87.8888 30.4017 87.1774 32.1092 87.1774 34.623C87.1774 37.1369 87.9837 38.8918 89.5489 38.8918C91.1141 38.8918 91.8256 37.1843 91.8256 34.6704Z" fill="#AF1F23"/>
<path d="M95.7628 35.6663H96.332C96.8063 37.3264 98.1344 38.7967 99.9842 38.7967C101.17 38.7967 101.929 38.2276 101.929 37.3264C101.929 36.4726 101.312 36.0457 99.2727 35.524C97.1858 34.9548 95.9051 34.3382 95.9051 32.3936C95.9051 30.7335 97.1383 29.6426 98.8933 29.6426C100.174 29.6426 100.791 30.2117 101.312 30.2117C101.597 30.2117 101.787 30.0695 102.024 29.6426H102.64V33.1525H101.976C101.597 32.0141 100.506 30.5438 98.751 30.5438C97.8024 30.5438 97.1858 31.0181 97.1858 31.8718C97.1858 32.7256 97.9447 33.105 99.6522 33.5793C102.166 34.2434 103.209 35.0023 103.209 36.8046C103.209 38.6544 101.834 39.7453 99.8419 39.7453C98.419 39.7453 97.3755 38.939 96.996 38.939C96.7114 38.939 96.4743 39.1762 96.2846 39.7453H95.668V35.6663H95.7628Z" fill="#AF1F23"/>
<path d="M104.775 34.7178C104.775 31.5874 107.194 29.5479 109.613 29.5479C111.463 29.5479 112.933 30.6862 112.933 32.2514C112.933 33.2475 112.317 33.8166 111.558 33.8166C110.847 33.8166 110.325 33.2949 110.325 32.4886C110.325 31.872 110.752 31.4451 111.131 31.3502C111.368 31.2554 111.368 31.1131 111.273 30.9708C110.989 30.6388 110.42 30.449 109.661 30.449C108.001 30.449 106.91 31.9668 106.91 34.5755C106.91 37.0894 108.096 38.6071 109.661 38.6071C110.657 38.6071 111.605 38.038 112.412 37.0419L112.981 37.5162C112.032 38.8443 110.704 39.7455 109.044 39.7455C106.767 39.7929 104.775 37.8482 104.775 34.7178Z" fill="#AF1F23"/>
<path d="M114.688 38.5123H115.02C115.827 38.5123 116.016 38.3226 116.016 37.4689V31.872C116.016 31.0183 115.827 30.7811 115.02 30.7811H114.546V29.8799L117.866 29.6428V37.4689C117.866 38.3226 118.056 38.5123 118.862 38.5123H119.099V39.461H114.736V38.5123H114.688ZM115.305 26.4175C115.305 25.6586 115.921 25.042 116.633 25.042C117.392 25.042 118.008 25.706 118.008 26.4175C118.008 27.1764 117.392 27.793 116.633 27.793C115.921 27.793 115.305 27.1289 115.305 26.4175Z" fill="#AF1F23"/>
<path d="M120.379 34.7178C120.379 31.6348 122.608 29.5479 124.79 29.5479C126.877 29.5479 128.727 31.2554 128.727 34.1012C128.727 34.2909 128.727 34.6704 128.679 34.955H122.371C122.466 37.2316 123.462 38.6546 125.075 38.6546C126.213 38.6546 127.162 38.0854 128.015 36.8996L128.679 37.3265C127.683 38.8443 126.45 39.7929 124.648 39.7929C122.181 39.7929 120.379 37.8008 120.379 34.7178ZM125.786 34.0063C126.497 34.0063 126.735 33.8641 126.735 33.2949C126.735 31.5399 125.976 30.4016 124.79 30.4016C123.604 30.4016 122.608 31.6348 122.466 34.0063H125.786Z" fill="#AF1F23"/>
<path d="M130.34 38.5121H130.672C131.526 38.5121 131.668 38.3224 131.668 37.4687V31.8718C131.668 31.0181 131.478 30.8283 130.672 30.8283H130.34V29.8797L133.565 29.6426L133.328 32.2987H133.47C134.134 30.8283 135.273 29.69 136.696 29.69C138.451 29.69 139.399 30.7335 139.399 32.9153V37.4687C139.399 38.3224 139.589 38.5121 140.443 38.5121H140.632V39.4608H136.126V38.5121H136.506C137.36 38.5121 137.549 38.3224 137.549 37.4687V32.9627C137.549 31.6347 137.122 30.9706 136.126 30.9706C134.703 30.9706 133.565 33.0576 133.565 34.9548V37.4687C133.565 38.3224 133.755 38.5121 134.609 38.5121H134.988V39.4608H130.34V38.5121Z" fill="#AF1F23"/>
<path d="M141.629 34.7178C141.629 31.5874 144.048 29.5479 146.467 29.5479C148.317 29.5479 149.787 30.6862 149.787 32.2514C149.787 33.2475 149.17 33.8166 148.412 33.8166C147.7 33.8166 147.178 33.2949 147.178 32.4886C147.178 31.872 147.605 31.4451 147.985 31.3502C148.222 31.2554 148.222 31.1131 148.127 30.9708C147.842 30.6388 147.321 30.449 146.514 30.449C144.854 30.449 143.763 31.9668 143.763 34.5755C143.763 37.0894 144.949 38.6071 146.514 38.6071C147.51 38.6071 148.459 38.038 149.265 37.0419L149.834 37.5162C148.886 38.8443 147.558 39.7455 145.898 39.7455C143.621 39.7929 141.629 37.8482 141.629 34.7178Z" fill="#AF1F23"/>
<path d="M151.399 34.7178C151.399 31.6348 153.629 29.5479 155.81 29.5479C157.897 29.5479 159.747 31.2554 159.747 34.1012C159.747 34.2909 159.747 34.6704 159.7 34.955H153.392C153.486 37.2316 154.482 38.6546 156.095 38.6546C157.233 38.6546 158.182 38.0854 159.036 36.8996L159.7 37.3265C158.704 38.8443 157.471 39.7929 155.621 39.7929C153.154 39.7929 151.399 37.8008 151.399 34.7178ZM156.759 34.0063C157.471 34.0063 157.708 33.8641 157.708 33.2949C157.708 31.5399 156.949 30.4016 155.763 30.4016C154.577 30.4016 153.581 31.6348 153.439 34.0063H156.759Z" fill="#AF1F23"/>
<path d="M37.0433 20.2043C36.0473 20.2043 35.7627 19.5403 35.7627 18.8288C35.7627 17.9276 36.237 17.311 37.1856 17.311C37.3753 17.311 37.6125 17.3585 37.8022 17.4059L37.7548 17.8802C37.5651 17.8328 37.3753 17.7853 37.1856 17.7853C36.6639 17.7853 36.3793 18.1648 36.3793 18.734C36.3793 19.3506 36.6165 19.6826 37.1856 19.6826C37.3753 19.6826 37.5651 19.6351 37.7074 19.5877L37.7548 20.062C37.5651 20.1569 37.3279 20.2043 37.0433 20.2043Z" fill="#134B8E"/>
<path d="M40.0795 20.2043C39.2257 20.2043 38.7988 19.6826 38.7988 18.7814C38.7988 17.8328 39.4154 17.311 40.1743 17.311C40.9332 17.311 41.455 17.7379 41.455 18.734C41.455 19.6826 40.8384 20.2043 40.0795 20.2043ZM40.1269 17.8328C39.7474 17.8328 39.368 18.1174 39.368 18.7814C39.368 19.398 39.6052 19.7774 40.0795 19.7774C40.4589 19.7774 40.8384 19.4929 40.8384 18.8288C40.8384 18.1648 40.6012 17.8328 40.1269 17.8328Z" fill="#134B8E"/>
<path d="M43.7315 20.2043C42.8303 20.2043 42.6406 19.73 42.6406 19.1608V17.311H43.1624V19.1134C43.1624 19.4454 43.2572 19.73 43.7315 19.73C44.1584 19.73 44.3007 19.5403 44.3007 19.066V17.311H44.8224V19.0185C44.9173 19.8723 44.4904 20.2043 43.7315 20.2043Z" fill="#134B8E"/>
<path d="M47.9529 20.1569L47.1466 18.734C47.0517 18.4968 46.9094 18.3071 46.862 18.1174C46.862 18.3545 46.9094 18.7814 46.9094 19.1134V20.1095H46.3877V17.311H47.0992L47.9055 18.6391C48.0478 18.8763 48.1426 19.1134 48.2375 19.3031C48.2375 19.0185 48.1901 18.4968 48.1901 18.1648V17.311H48.7118V20.1095H47.9529V20.1569Z" fill="#134B8E"/>
<path d="M51.0359 17.8327V20.1568H50.5142V17.8327H49.8027V17.3584H51.7948V17.8327H51.0359Z" fill="#134B8E"/>
<path d="M54.0716 20.1568L53.3128 19.0185V20.1568H52.791V17.3584C53.0282 17.3584 53.2653 17.3584 53.5973 17.3584C54.2139 17.3584 54.5934 17.5956 54.5934 18.1647C54.5934 18.5916 54.3088 18.8762 53.8819 18.9236C53.9768 19.0185 54.0242 19.1133 54.1191 19.2082L54.7831 20.1568H54.0716ZM53.5025 17.7853C53.4076 17.7853 53.3602 17.7853 53.3128 17.7853V18.5916C53.3602 18.5916 53.4076 18.5916 53.5025 18.5916C53.8345 18.5916 54.0242 18.4019 54.0242 18.1647C53.9768 17.9276 53.8345 17.7853 53.5025 17.7853Z" fill="#134B8E"/>
<path d="M56.7271 19.1608V20.1568H56.2053V19.1608L55.3516 17.3584H55.9207L56.3002 18.1647C56.395 18.307 56.4425 18.4967 56.4899 18.639C56.5373 18.4967 56.6322 18.307 56.7271 18.1173L57.0591 17.3584H57.6282L56.7271 19.1608Z" fill="#134B8E"/>
<path d="M39.8892 6.92353C39.8418 6.92353 39.7943 6.92353 39.6995 6.92353V7.91958H39.1777V5.07373C39.4149 5.07373 39.652 5.07373 39.9366 5.07373C40.6481 5.07373 41.0275 5.40575 41.0275 5.92749C40.9801 6.49666 40.5532 6.92353 39.8892 6.92353ZM39.8892 5.50061C39.8418 5.50061 39.7469 5.50061 39.6995 5.50061V6.44922C39.7469 6.44922 39.7943 6.44922 39.8418 6.44922C40.1738 6.44922 40.4109 6.2595 40.4109 5.97492C40.4109 5.69033 40.2686 5.50061 39.8892 5.50061Z" fill="#BC382E"/>
<path d="M43.5892 7.91951L43.3995 7.35034H42.356L42.1663 7.91951H41.6445L42.6406 5.12109H43.2572L44.2532 7.91951H43.5892ZM43.02 6.16457C42.9726 6.02228 42.9252 5.87999 42.8777 5.73769C42.8303 5.87999 42.7829 6.02228 42.7354 6.212L42.4983 6.92347H43.2572L43.02 6.16457Z" fill="#BC382E"/>
<path d="M46.0076 5.54804V7.87215H45.4859V5.54804H44.7744V5.07373H46.7665V5.54804H46.0076Z" fill="#BC382E"/>
<path d="M49.1855 7.91958L48.3792 6.78124V7.91958H47.8574V5.07373C48.0946 5.07373 48.3317 5.07373 48.6637 5.07373C49.2803 5.07373 49.6598 5.31088 49.6598 5.88005C49.6598 6.30693 49.3752 6.59152 48.9483 6.63895C49.0432 6.73381 49.0906 6.82867 49.1855 6.92353L49.8495 7.87215H49.1855V7.91958ZM48.6163 5.50061C48.5215 5.50061 48.474 5.50061 48.4266 5.50061V6.30693C48.474 6.30693 48.5215 6.30693 48.6163 6.30693C48.9483 6.30693 49.1381 6.11721 49.1381 5.88005C49.1381 5.6429 48.9483 5.50061 48.6163 5.50061Z" fill="#BC382E"/>
<path d="M51.0352 7.91958V5.07373H51.5569V7.87215H51.0352V7.91958Z" fill="#BC382E"/>
<path d="M54.0716 7.96701C53.2179 7.96701 52.791 7.39784 52.791 6.54409C52.791 5.59547 53.4076 5.07373 54.1665 5.07373C54.9254 5.07373 55.4471 5.54804 55.4471 6.49666C55.4471 7.39784 54.878 7.96701 54.0716 7.96701ZM54.1191 5.54804C53.7396 5.54804 53.3602 5.83262 53.3602 6.49666C53.3602 7.11326 53.5973 7.4927 54.1191 7.4927C54.4985 7.4927 54.878 7.20812 54.878 6.54409C54.878 5.88005 54.6408 5.54804 54.1191 5.54804Z" fill="#BC382E"/>
<path d="M57.533 5.54804V7.87215H57.0113V5.54804H56.2998V5.07373H58.2919V5.54804H57.533Z" fill="#BC382E"/>
<path d="M59.1943 7.91958V5.07373H59.7161V7.87215H59.1943V7.91958Z" fill="#BC382E"/>
<path d="M62.1351 7.91965C61.1391 7.91965 60.8545 7.25562 60.8545 6.54415C60.8545 5.64297 61.3288 5.02637 62.2774 5.02637C62.4671 5.02637 62.7043 5.02637 62.894 5.12123L62.8466 5.59554C62.6569 5.54811 62.4671 5.50068 62.2774 5.50068C61.7557 5.50068 61.5185 5.88012 61.5185 6.44929C61.5185 7.06589 61.7557 7.39791 62.3248 7.39791C62.5146 7.39791 62.7043 7.35048 62.8466 7.30305L62.894 7.77735C62.6569 7.87222 62.3723 7.91965 62.1351 7.91965Z" fill="#BC382E"/>
<path d="M8.29977 20.2517C8.11005 20.2517 7.92033 20.2517 7.7306 20.2043L7.77803 19.6826C7.92033 19.73 8.15748 19.7774 8.3472 19.7774C8.63179 19.7774 8.82151 19.6826 8.82151 19.398C8.82151 18.8763 7.63574 19.1134 7.63574 18.1648C7.63574 17.6431 8.01519 17.311 8.72665 17.311C8.86894 17.311 9.05867 17.311 9.24839 17.3585L9.20096 17.8328C9.05867 17.7853 8.86894 17.7379 8.67922 17.7379C8.3472 17.7379 8.20491 17.8802 8.20491 18.0699C8.20491 18.5917 9.39068 18.4019 9.39068 19.2557C9.43811 19.8249 9.01124 20.2517 8.29977 20.2517Z" fill="#134B8E"/>
<path d="M10.6719 20.2042V17.4058H12.1897V17.8801H11.1936V18.5915H12.1422V18.971H11.1936V19.7299H12.1897V20.2042H10.6719Z" fill="#134B8E"/>
<path d="M14.8929 20.2042L14.134 19.0658V20.2042H13.6123V17.4058C13.8495 17.4058 14.0866 17.4058 14.4186 17.4058C15.0352 17.4058 15.4621 17.6429 15.4621 18.2121C15.4621 18.639 15.1775 18.9235 14.7506 19.0184C14.8455 19.1133 14.8929 19.2081 14.9878 19.303L15.6518 20.2516H14.8929V20.2042ZM14.2763 17.7852C14.1815 17.7852 14.134 17.7852 14.0392 17.7852V18.5915C14.0866 18.5915 14.134 18.5915 14.2289 18.5915C14.5609 18.5915 14.7506 18.4492 14.7506 18.1647C14.7981 17.9275 14.6084 17.7852 14.2763 17.7852Z" fill="#134B8E"/>
<path d="M17.9291 20.2042H17.3125L16.3164 17.4058H16.8856L17.4073 19.0658C17.4547 19.2081 17.5022 19.3979 17.597 19.635C17.6445 19.4453 17.6919 19.303 17.7393 19.0658L18.3085 17.4532H18.8777L17.9291 20.2042Z" fill="#134B8E"/>
<path d="M20.0156 20.2042V17.4058H20.5374V20.2042H20.0156Z" fill="#134B8E"/>
<path d="M23.099 20.2043C22.1029 20.2043 21.8184 19.5403 21.8184 18.8288C21.8184 17.9276 22.2927 17.311 23.2413 17.311C23.431 17.311 23.6682 17.3585 23.8579 17.4059L23.8105 17.8802C23.6207 17.8328 23.431 17.7853 23.2413 17.7853C22.7195 17.7853 22.435 18.1648 22.435 18.734C22.435 19.3506 22.6721 19.6826 23.2413 19.6826C23.431 19.6826 23.6207 19.6351 23.763 19.5877L23.8105 20.062C23.5733 20.1569 23.3361 20.2043 23.099 20.2043Z" fill="#134B8E"/>
<path d="M24.9961 20.2042V17.4058H26.5613V17.8801H25.5653V18.5915H26.5139V18.971H25.5653V19.7299H26.5613V20.2042H24.9961Z" fill="#134B8E"/>
<path d="M39.4628 11.9986L38.6565 10.8603V11.9986H38.1348V9.2002C38.3719 9.2002 38.6091 9.2002 38.9411 9.2002C39.5577 9.2002 39.9371 9.43735 39.9371 10.0065C39.9371 10.4334 39.6525 10.718 39.2257 10.7654C39.3205 10.8603 39.368 10.9551 39.4628 11.05L40.1269 11.9986H39.4628ZM38.8462 9.62707C38.7514 9.62707 38.7039 9.62707 38.6565 9.62707V10.4334C38.7039 10.4334 38.7514 10.4334 38.8462 10.4334C39.1782 10.4334 39.368 10.2437 39.368 10.0065C39.368 9.76937 39.2257 9.62707 38.8462 9.62707Z" fill="#134B8E"/>
<path d="M41.3594 11.9986V9.2002H42.8772V9.6745H41.8811V10.386H42.8297V10.8128H41.8811V11.5717H42.8772V12.046H41.3594V11.9986Z" fill="#134B8E"/>
<path d="M44.8222 12.0462C44.6325 12.0462 44.4428 12.0462 44.2531 11.9987L44.3005 11.477C44.4428 11.5244 44.6799 11.5719 44.8697 11.5719C45.1543 11.5719 45.344 11.477 45.344 11.1924C45.344 10.6707 44.1582 10.9078 44.1582 9.95922C44.1582 9.43748 44.5377 9.10547 45.2491 9.10547C45.3914 9.10547 45.5811 9.10547 45.7709 9.1529L45.7234 9.62721C45.5811 9.57978 45.3914 9.53235 45.2017 9.53235C44.8697 9.53235 44.7274 9.67464 44.7274 9.86436C44.7274 10.3861 45.9131 10.1964 45.9131 11.0501C45.9131 11.6667 45.4863 12.0462 44.8222 12.0462Z" fill="#134B8E"/>
<path d="M47.9527 11.0026C47.9052 11.0026 47.8578 11.0026 47.7629 11.0026V11.9986H47.2412V9.2002C47.4784 9.2002 47.7155 9.2002 48.0001 9.2002C48.7116 9.2002 49.091 9.53221 49.091 10.054C49.0436 10.5757 48.6167 11.0026 47.9527 11.0026ZM47.9527 9.62707C47.9052 9.62707 47.8104 9.62707 47.7629 9.62707V10.5757C47.8104 10.5757 47.8578 10.5757 47.9052 10.5757C48.2373 10.5757 48.4744 10.386 48.4744 10.1014C48.4744 9.8168 48.3321 9.62707 47.9527 9.62707Z" fill="#134B8E"/>
<path d="M50.1338 11.9986V9.2002H51.6516V9.6745H50.6555V10.386H51.6041V10.8128H50.6555V11.5717H51.6516V12.046H50.1338V11.9986Z" fill="#134B8E"/>
<path d="M54.1664 12.0461C53.1703 12.0461 52.8857 11.3821 52.8857 10.6706C52.8857 9.76943 53.3601 9.15283 54.3087 9.15283C54.4984 9.15283 54.7355 9.20026 54.9253 9.24769L54.8778 9.722C54.6881 9.67457 54.4984 9.62714 54.3087 9.62714C53.7869 9.62714 53.5498 10.0066 53.5498 10.5758C53.5498 11.1924 53.7869 11.5244 54.3561 11.5244C54.5458 11.5244 54.7355 11.4769 54.8778 11.4295L54.9253 11.9038C54.6881 11.9987 54.4035 12.0461 54.1664 12.0461Z" fill="#134B8E"/>
<path d="M57.1541 9.6745V11.9986H56.6324V9.6745H55.9209V9.2002H57.913V9.6745H57.1541Z" fill="#134B8E"/>
<path d="M6.64031 16.1251C6.35572 16.1251 6.11857 16.1251 5.83398 16.1251V13.2793C6.07114 13.2793 6.40315 13.2793 6.73517 13.2793C7.58892 13.2793 8.1581 13.6587 8.1581 14.6548C8.1581 15.6034 7.54149 16.1251 6.64031 16.1251ZM6.73517 13.7062C6.59288 13.7062 6.49802 13.7062 6.40315 13.7062V15.6034C6.49802 15.6034 6.59288 15.6034 6.68774 15.6034C7.20948 15.6034 7.58893 15.3188 7.58893 14.6548C7.58893 14.0856 7.35177 13.7062 6.73517 13.7062Z" fill="#BC382E"/>
<path d="M10.4825 16.1251C9.58133 16.1251 9.3916 15.6508 9.3916 15.1291V13.2793H9.96077V15.0817C9.96077 15.4137 10.0556 15.6983 10.5299 15.6983C10.9568 15.6983 11.0991 15.5085 11.0991 15.0342V13.2793H11.6209V14.9868C11.6683 15.7457 11.2414 16.1251 10.4825 16.1251Z" fill="#BC382E"/>
<path d="M14.0398 13.7536V16.0777H13.5181V13.7536H12.8066V13.2793H14.7987V13.7536H14.0398Z" fill="#BC382E"/>
<path d="M17.0278 15.0817V16.0777H16.5061V15.0817L15.6523 13.2793H16.2215L16.601 14.0856C16.6958 14.2753 16.7433 14.4176 16.7907 14.5599C16.8381 14.4176 16.933 14.2279 17.0278 14.0382L17.3599 13.2793H17.929L17.0278 15.0817Z" fill="#BC382E"/>
<path d="M38.514 16.0777L38.3243 15.5085H37.2808L37.0911 16.0777H36.5693L37.4705 13.2793H38.0871L39.0832 16.0777H38.514ZM37.8974 14.3702C37.85 14.2279 37.8025 14.0856 37.7551 13.9433C37.7077 14.0856 37.6602 14.2279 37.6128 14.4176L37.3757 15.1291H38.1346L37.8974 14.3702Z" fill="#BC382E"/>
<path d="M40.1738 16.0777V13.2793H40.6956V15.6034H41.5968V16.0777H40.1738Z" fill="#BC382E"/>
<path d="M45.4858 16.0777H44.8217L44.3949 14.5125C44.3474 14.3228 44.3 14.1331 44.3 13.9433C44.3 14.1331 44.2526 14.3228 44.2051 14.5125L43.7783 16.0777H43.1617L42.4502 13.2793H43.0194L43.3988 14.8445C43.4462 15.0342 43.4937 15.224 43.4937 15.4137C43.5411 15.224 43.5411 15.0342 43.5885 14.8445L44.0154 13.2793H44.5846L45.0115 14.8445C45.0589 14.9868 45.1063 15.1765 45.1063 15.4137C45.1538 15.224 45.1538 15.0342 45.2012 14.8919L45.5806 13.3267H46.1024L45.4858 16.0777Z" fill="#BC382E"/>
<path d="M48.9481 16.0777L48.7584 15.5085H47.7149L47.5252 16.0777H46.9561L47.9521 13.2793H48.5687L49.5648 16.0777H48.9481ZM48.3315 14.3702C48.2841 14.2279 48.2367 14.0856 48.1893 13.9433C48.1418 14.0856 48.0944 14.2279 48.047 14.4176L47.8098 15.1291H48.6161L48.3315 14.3702Z" fill="#BC382E"/>
<path d="M51.5098 15.0817V16.0777H50.9881V15.0817L50.0869 13.2793H50.6561L51.0355 14.0856C51.1304 14.2753 51.1778 14.4176 51.2253 14.5599C51.2727 14.4176 51.3675 14.2279 51.4624 14.0382L51.7944 13.2793H52.3636L51.5098 15.0817Z" fill="#BC382E"/>
<path d="M53.834 16.1253C53.6442 16.1253 53.4545 16.1253 53.2648 16.0779L53.3122 15.5561C53.4545 15.6035 53.6917 15.651 53.8814 15.651C54.166 15.651 54.3557 15.5561 54.3557 15.2715C54.3557 14.7498 53.1699 14.9869 53.1699 14.0383C53.1699 13.5166 53.5494 13.1846 54.2608 13.1846C54.4031 13.1846 54.5928 13.1846 54.7826 13.232L54.7351 13.7063C54.5928 13.6589 54.4031 13.6114 54.2134 13.6114C53.8814 13.6114 53.7391 13.7537 53.7391 13.9435C53.7391 14.4652 54.9249 14.2755 54.9249 15.1292C54.9249 15.7458 54.5454 16.1253 53.834 16.1253Z" fill="#BC382E"/>
<path d="M1.75494 3.79305V2.55985H0.521739V3.79305H0V0.994629H0.521739V2.13297H1.70751V0.994629H2.22925V3.79305H1.75494Z" fill="#134B8E"/>
<path d="M3.79492 3.79305V0.994629H5.31271V1.46894H4.31666V2.1804H5.26528V2.60728H4.31666V3.31874H5.31271V3.79305H3.79492Z" fill="#134B8E"/>
<path d="M7.96869 3.79305L7.16236 2.65471V3.79305H6.64062V0.994629C6.87778 0.994629 7.11493 0.994629 7.44695 0.994629C8.06355 0.994629 8.49043 1.23178 8.49043 1.80095C8.49043 2.22783 8.20584 2.51242 7.77896 2.55985C7.87383 2.65471 7.92126 2.74957 8.01612 2.84443L8.68015 3.79305H7.96869ZM7.39952 1.42151C7.30466 1.42151 7.25723 1.42151 7.16236 1.42151V2.22783C7.2098 2.22783 7.25723 2.22783 7.35209 2.22783C7.6841 2.22783 7.87383 2.08554 7.87383 1.80095C7.87383 1.5638 7.73153 1.42151 7.39952 1.42151Z" fill="#134B8E"/>
<path d="M10.8138 3.84055C9.96008 3.84055 9.5332 3.31881 9.5332 2.41762C9.5332 1.469 10.1498 0.947266 10.9087 0.947266C11.6676 0.947266 12.1893 1.37414 12.1893 2.37019C12.1893 3.27138 11.5727 3.84055 10.8138 3.84055ZM10.8613 1.42157C10.4818 1.42157 10.1024 1.75359 10.1024 2.37019C10.1024 2.93936 10.3395 3.36624 10.8613 3.36624C11.2407 3.36624 11.6202 3.08165 11.6202 2.41762C11.6202 1.75359 11.3356 1.42157 10.8613 1.42157Z" fill="#134B8E"/>
<path d="M13.4229 3.79305V0.994629H13.9446V3.79305H13.4229Z" fill="#134B8E"/>
<path d="M16.5062 3.84055C15.5102 3.84055 15.2256 3.17651 15.2256 2.46505C15.2256 1.56387 15.6999 0.947266 16.6485 0.947266C16.8382 0.947266 17.0754 0.994696 17.2651 1.04213L17.2177 1.51644C17.028 1.469 16.8382 1.42157 16.6485 1.42157C16.1268 1.42157 15.8896 1.80102 15.8896 2.37019C15.8896 2.98679 16.1268 3.31881 16.6959 3.31881C16.8857 3.31881 17.0754 3.27138 17.2177 3.22395L17.2651 3.69825C17.028 3.79312 16.7434 3.84055 16.5062 3.84055Z" fill="#134B8E"/>
<path d="M18.1191 40.6941C17.9294 40.6941 17.7397 40.6941 17.5499 40.6467L17.5974 40.125C17.7397 40.1724 17.9768 40.2198 18.1665 40.2198C18.4511 40.2198 18.6408 40.125 18.6408 39.8404C18.6408 39.3186 17.4551 39.5558 17.4551 38.6072C17.4551 38.0854 17.8345 37.7534 18.546 37.7534C18.6883 37.7534 18.878 37.7534 19.0677 37.8008L19.0203 38.2752C18.878 38.2277 18.6883 38.1803 18.4986 38.1803C18.1665 38.1803 18.0242 38.3226 18.0242 38.5123C18.0242 39.034 19.21 38.8443 19.21 39.6981C19.21 40.3147 18.8306 40.6941 18.1191 40.6941Z" fill="#BC382E"/>
<path d="M20.4902 40.647V37.8486H22.008V38.3229H21.012V39.0344H21.9606V39.4613H21.012V40.2202H22.008V40.6945H20.4902V40.647Z" fill="#BC382E"/>
<path d="M23.3359 40.647V37.8486H23.8577V40.1727H24.7589V40.647H23.3359Z" fill="#BC382E"/>
<path d="M26.4661 38.3229V39.0344H27.3673V39.4613H26.4661V40.647H25.9443V37.8486H27.4621V38.3229H26.4661Z" fill="#BC382E"/>
<path d="M28.6484 40.647V37.8486H29.1702V40.1727H30.0714V40.647H28.6484Z" fill="#BC382E"/>
<path d="M31.21 40.647V37.8486H32.7277V38.3229H31.7791V39.0344H32.7277V39.4613H31.7791V40.2202H32.7752V40.6945H31.21V40.647Z" fill="#BC382E"/>
<path d="M34.5771 40.6941C34.3874 40.6941 34.1977 40.6941 34.0079 40.6467L34.0554 40.125C34.1977 40.1724 34.4348 40.2198 34.6245 40.2198C34.9091 40.2198 35.0989 40.125 35.0989 39.8404C35.0989 39.3186 33.9131 39.5558 33.9131 38.6072C33.9131 38.0854 34.2925 37.7534 35.004 37.7534C35.1463 37.7534 35.336 37.7534 35.5257 37.8008L35.4783 38.2752C35.336 38.2277 35.1463 38.1803 34.9566 38.1803C34.6245 38.1803 34.4823 38.3226 34.4823 38.5123C34.4823 39.034 35.668 38.8443 35.668 39.6981C35.7155 40.3147 35.2886 40.6941 34.5771 40.6941Z" fill="#BC382E"/>
<path d="M37.4228 40.6941C37.2331 40.6941 37.0434 40.6941 36.8536 40.6467L36.9011 40.125C37.0434 40.1724 37.2805 40.2198 37.4703 40.2198C37.7548 40.2198 37.9446 40.125 37.9446 39.8404C37.9446 39.3186 36.7588 39.5558 36.7588 38.6072C36.7588 38.0854 37.1382 37.7534 37.8497 37.7534C37.992 37.7534 38.1817 37.7534 38.3714 37.8008L38.324 38.2752C38.1817 38.2277 37.992 38.1803 37.8023 38.1803C37.4703 38.1803 37.328 38.3226 37.328 38.5123C37.328 39.034 38.5137 38.8443 38.5137 39.6981C38.5137 40.3147 38.0869 40.6941 37.4228 40.6941Z" fill="#BC382E"/>
<path d="M10.5768 24.2833C10.3871 24.2833 10.1025 24.2833 9.77051 24.2833V21.4849C10.0077 21.4849 10.3871 21.4849 10.7191 21.4849C11.3357 21.4849 11.6677 21.722 11.6677 22.1963C11.6677 22.4809 11.478 22.7181 11.2409 22.8129C11.5729 22.9078 11.7152 23.1449 11.7152 23.4295C11.7152 23.809 11.4306 24.2833 10.5768 24.2833ZM10.6243 21.9117C10.5294 21.9117 10.3871 21.9117 10.2922 21.9117V22.6232C10.3397 22.6232 10.4345 22.6232 10.5294 22.6232C10.9088 22.6232 11.0986 22.4809 11.0986 22.2438C11.0986 22.054 10.9563 21.9117 10.6243 21.9117ZM10.5768 23.0501C10.5294 23.0501 10.3871 23.0501 10.3397 23.0501V23.8564C10.3871 23.8564 10.5294 23.8564 10.6243 23.8564C11.0037 23.8564 11.146 23.7141 11.146 23.4295C11.146 23.1449 10.9088 23.0501 10.5768 23.0501Z" fill="#BC382E"/>
<path d="M14.372 24.2833L13.5657 23.0975V24.2833H13.0439V21.4849C13.2811 21.4849 13.5183 21.4849 13.8503 21.4849C14.4669 21.4849 14.8937 21.722 14.8937 22.2912C14.8937 22.7181 14.6092 23.0027 14.1823 23.0975C14.2771 23.1924 14.3246 23.2872 14.4194 23.3821L15.0835 24.3307H14.372V24.2833ZM13.7554 21.9117C13.6605 21.9117 13.6131 21.9117 13.5657 21.9117V22.7181C13.6131 22.7181 13.6605 22.7181 13.7554 22.7181C14.0874 22.7181 14.2771 22.5758 14.2771 22.2912C14.2771 22.054 14.1349 21.9117 13.7554 21.9117Z" fill="#BC382E"/>
<path d="M17.8812 24.2833L17.6915 23.7141H16.648L16.4583 24.2833H15.9365L16.9326 21.4849H17.5492L18.5452 24.2833H17.8812ZM17.312 22.5283C17.2646 22.386 17.2172 22.2438 17.1697 22.1015C17.1223 22.2438 17.0749 22.386 17.0274 22.5758L16.7903 23.2872H17.5492L17.312 22.5283Z" fill="#BC382E"/>
<path d="M20.6791 24.2833H20.0625L19.0664 21.4849H19.6356L20.2047 23.1449C20.2522 23.2872 20.2996 23.477 20.3945 23.7141C20.4419 23.5244 20.4893 23.3821 20.5842 23.1449L21.1534 21.5323H21.7225L20.6791 24.2833Z" fill="#BC382E"/>
<path d="M22.7666 24.2833V21.4849H24.2844V21.9592H23.2883V22.6706H24.237V23.0975H23.2883V23.8564H24.2844V24.3307H22.7666V24.2833Z" fill="#BC382E"/>
<path d="M35.3359 24.3308C35.1462 24.3308 34.9565 24.3308 34.7667 24.2834L34.8142 23.7617C34.9565 23.8091 35.1936 23.8565 35.3833 23.8565C35.6679 23.8565 35.8576 23.7617 35.8576 23.4771C35.8576 22.9554 34.6719 23.1925 34.6719 22.2439C34.6719 21.7222 35.0513 21.3901 35.7628 21.3901C35.9051 21.3901 36.0948 21.3901 36.2845 21.4376L36.2371 21.9119C36.0948 21.8644 35.9051 21.817 35.7154 21.817C35.3833 21.817 35.241 21.9593 35.241 22.149C35.241 22.6708 36.4268 22.481 36.4268 23.3348C36.4742 23.9514 36.0474 24.3308 35.3359 24.3308Z" fill="#BC382E"/>
<path d="M37.7549 24.2833V21.4849H39.2727V21.9592H38.2766V22.6706H39.2252V23.0975H38.2766V23.8564H39.2727V24.3307H37.7549V24.2833Z" fill="#BC382E"/>
<path d="M43.3043 24.2833L43.1146 22.9552C43.0671 22.6706 43.0671 22.4809 43.0197 22.2912C42.9723 22.4809 42.9248 22.6706 42.8774 22.9078L42.4505 24.3307H41.9288L41.5019 23.0501C41.407 22.8129 41.3596 22.5758 41.3122 22.3386C41.3122 22.5758 41.2648 22.8129 41.2173 23.0501L41.075 24.3307H40.5059L40.9327 21.5323H41.5493L42.0236 22.9552C42.0711 23.1449 42.1185 23.3347 42.1659 23.5244C42.2134 23.2872 42.2608 23.1449 42.3082 22.9552L42.7825 21.4849H43.3991L43.826 24.2833H43.3043Z" fill="#BC382E"/>
<path d="M45.771 23.2872C45.7236 23.2872 45.6762 23.2872 45.5813 23.2872V24.2833H45.0596V21.4849C45.2967 21.4849 45.5339 21.4849 45.8185 21.4849C46.5299 21.4849 46.9094 21.8169 46.9094 22.3386C46.8619 22.8604 46.4351 23.2872 45.771 23.2872ZM45.771 21.9117C45.7236 21.9117 45.6287 21.9117 45.5813 21.9117V22.8604C45.6287 22.8604 45.6762 22.8604 45.7236 22.8604C46.0556 22.8604 46.2928 22.6706 46.2928 22.386C46.2928 22.054 46.1505 21.9117 45.771 21.9117Z" fill="#BC382E"/>
<path d="M48 24.2833V21.4849H49.5178V21.9592H48.5217V22.6706H49.4704V23.0975H48.5217V23.8564H49.5178V24.3307H48V24.2833Z" fill="#BC382E"/>
<path d="M52.2211 24.2833L51.4622 23.0975V24.2833H50.9404V21.4849C51.1776 21.4849 51.4147 21.4849 51.7468 21.4849C52.3634 21.4849 52.7428 21.722 52.7428 22.2912C52.7428 22.7181 52.4582 23.0027 52.0313 23.0975C52.1262 23.1924 52.1736 23.2872 52.2685 23.3821L52.9325 24.3307H52.2211V24.2833ZM51.6519 21.9117C51.557 21.9117 51.5096 21.9117 51.4622 21.9117V22.7181C51.5096 22.7181 51.557 22.7181 51.6519 22.7181C51.9839 22.7181 52.1736 22.5758 52.1736 22.2912C52.1736 22.054 51.9839 21.9117 51.6519 21.9117Z" fill="#BC382E"/>
<path d="M13.0443 28.3624L12.2854 27.1766V28.3624H11.7637V25.564C12.0008 25.564 12.238 25.564 12.57 25.564C13.1866 25.564 13.566 25.8011 13.566 26.3703C13.566 26.7972 13.2815 27.0818 12.8546 27.1292C12.9494 27.224 12.9969 27.3189 13.0917 27.4138L13.7558 28.3624H13.0443ZM12.4751 25.9908C12.3803 25.9908 12.3328 25.9908 12.2854 25.9908V26.7972C12.3328 26.7972 12.3803 26.7972 12.4751 26.7972C12.8072 26.7972 12.9969 26.6074 12.9969 26.3703C12.9494 26.1331 12.8072 25.9908 12.4751 25.9908Z" fill="#134B8E"/>
<path d="M14.8936 28.3624V25.564H16.4113V26.0383H15.4153V26.7497H16.3639V27.1766H15.4153V27.9355H16.4113V28.4098H14.8936V28.3624Z" fill="#134B8E"/>
<path d="M19.4466 28.3624L19.2569 27.7932H18.2134L18.0237 28.3624H17.502L18.498 25.564H19.1146L20.1106 28.3624H19.4466ZM18.8774 26.6549C18.83 26.5126 18.7826 26.3703 18.7352 26.228C18.6877 26.3703 18.6403 26.56 18.5929 26.7023L18.3557 27.4138H19.162L18.8774 26.6549Z" fill="#134B8E"/>
<path d="M21.9132 28.4097C21.6286 28.4097 21.3915 28.4097 21.1543 28.4097V25.6113C21.3915 25.6113 21.7235 25.6113 22.0555 25.6113C22.9092 25.6113 23.4784 25.9908 23.4784 26.9868C23.431 27.888 22.8144 28.4097 21.9132 28.4097ZM21.9606 25.9908C21.8183 25.9908 21.7235 25.9908 21.6286 25.9908V27.888C21.7235 27.888 21.8183 27.888 21.9132 27.888C22.4349 27.888 22.8144 27.6034 22.8144 26.9394C22.8618 26.3702 22.6247 25.9908 21.9606 25.9908Z" fill="#134B8E"/>
<path d="M25.6124 27.3663V28.3624H25.0906V27.3663L24.1895 25.564H24.7586L25.1381 26.3703C25.2329 26.56 25.2804 26.7023 25.3278 26.8446C25.3752 26.7023 25.4701 26.5126 25.5649 26.3229L25.897 25.564H26.4661L25.6124 27.3663Z" fill="#134B8E"/>
<path d="M34.5294 28.4097C34.2448 28.4097 34.0077 28.4097 33.7705 28.4097V25.6113C34.0077 25.6113 34.3397 25.6113 34.6717 25.6113C35.5254 25.6113 36.0946 25.9908 36.0946 26.9868C36.0946 27.888 35.478 28.4097 34.5294 28.4097ZM34.6243 25.9908C34.482 25.9908 34.3871 25.9908 34.2922 25.9908V27.888C34.3871 27.888 34.482 27.888 34.5768 27.888C35.0986 27.888 35.478 27.6034 35.478 26.9394C35.5255 26.3702 35.2883 25.9908 34.6243 25.9908Z" fill="#134B8E"/>
<path d="M37.3281 28.3624V25.564H38.8459V26.0383H37.8499V26.7497H38.7985V27.1766H37.8499V27.9355H38.8459V28.4098H37.3281V28.3624Z" fill="#134B8E"/>
<path d="M40.7434 26.0383V26.7497H41.6446V27.1766H40.7434V28.3624H40.2217V25.564H41.7395V26.0383H40.7434Z" fill="#134B8E"/>
<path d="M42.8779 28.3624V25.564H44.3957V26.0383H43.3997V26.7497H44.3483V27.1766H43.3997V27.9355H44.3957V28.4098H42.8779V28.3624Z" fill="#134B8E"/>
<path d="M47.3357 28.3625L46.5294 26.9395C46.3871 26.7498 46.2922 26.5126 46.2448 26.3229C46.2448 26.5601 46.2922 26.987 46.2922 27.319V28.315H45.7705V25.5166H46.482L47.2409 26.8447C47.3832 27.0818 47.478 27.319 47.5729 27.5087C47.5729 27.2241 47.5254 26.7498 47.5254 26.3704V25.5166H48.0472V28.315H47.3357V28.3625Z" fill="#134B8E"/>
<path d="M50.2296 28.4097C49.945 28.4097 49.7079 28.4097 49.4707 28.4097V25.6113C49.7079 25.6113 50.0399 25.6113 50.3719 25.6113C51.2256 25.6113 51.7948 25.9908 51.7948 26.9868C51.7948 27.888 51.1308 28.4097 50.2296 28.4097ZM50.3245 25.9908C50.1822 25.9908 50.0873 25.9908 49.9924 25.9908V27.888C50.0873 27.888 50.1822 27.888 50.277 27.888C50.7988 27.888 51.1782 27.6034 51.1782 26.9394C51.1782 26.3702 50.9411 25.9908 50.3245 25.9908Z" fill="#134B8E"/>
<path d="M14.514 32.5363C13.518 32.5363 13.2334 31.8723 13.2334 31.1609C13.2334 30.2597 13.7077 29.6431 14.6563 29.6431C14.846 29.6431 15.0832 29.6905 15.2729 29.7379L15.2255 30.2122C15.0358 30.1648 14.846 30.1174 14.6563 30.1174C14.1346 30.1174 13.8974 30.4968 13.8974 31.066C13.8974 31.6826 14.1346 32.0146 14.7038 32.0146C14.8935 32.0146 15.0832 31.9672 15.2255 31.9197L15.2729 32.3941C14.9883 32.4889 14.7512 32.5363 14.514 32.5363Z" fill="#BC382E"/>
<path d="M17.5502 32.5363C16.6964 32.5363 16.2695 31.9672 16.2695 31.1134C16.2695 30.1648 16.8861 29.6431 17.645 29.6431C18.4039 29.6431 18.9257 30.0699 18.9257 31.066C18.9257 31.9672 18.3091 32.5363 17.5502 32.5363ZM17.5976 30.1174C17.2181 30.1174 16.8387 30.4494 16.8387 31.066C16.8387 31.6826 17.0759 32.062 17.5976 32.062C17.977 32.062 18.3565 31.7775 18.3565 31.1134C18.3565 30.4494 18.0719 30.1174 17.5976 30.1174Z" fill="#BC382E"/>
<path d="M22.7193 32.4885L22.5296 31.1604C22.4822 30.8758 22.4822 30.6861 22.4347 30.4964C22.3873 30.6861 22.3399 30.8758 22.2924 31.113L21.8656 32.5359H21.3438L20.8695 31.1604C20.7747 30.9233 20.7272 30.6861 20.6798 30.449C20.6798 30.6861 20.6324 30.9233 20.5849 31.1604L20.4426 32.4411H19.9209L20.3478 29.6426H20.9644L21.4387 31.0656C21.4861 31.2553 21.581 31.445 21.581 31.6347C21.6284 31.3976 21.6758 31.2553 21.7233 31.0656L22.1976 29.5952H22.8142L23.2411 32.3936H22.7193V32.4885Z" fill="#BC382E"/>
<path d="M27.2252 32.4888L27.0355 31.1608C26.988 30.8762 26.988 30.6865 26.9406 30.4968C26.8932 30.6865 26.8457 30.8762 26.7983 31.1134L26.3714 32.5363H25.8497L25.4228 31.2556C25.3279 31.0185 25.2805 30.7813 25.2331 30.5442C25.2331 30.7813 25.1857 31.0185 25.1382 31.2556L24.9959 32.5363H24.4268L24.8536 29.7379H25.4702L25.9445 31.1608C25.992 31.3505 26.0394 31.5402 26.0868 31.73C26.1343 31.4928 26.1817 31.3505 26.2291 31.1608L26.7034 29.6904H27.32L27.7469 32.4888H27.2252Z" fill="#BC382E"/>
<path d="M29.0273 32.4888V29.6904H29.5491V32.4888H29.0273Z" fill="#BC382E"/>
<path d="M31.9686 30.1174V32.4889H31.4468V30.1174H30.7354V29.6431H32.7274V30.1174H31.9686Z" fill="#BC382E"/>
<path d="M36.3316 32.4888L36.1419 31.1608C36.0945 30.8762 36.0945 30.6865 36.047 30.4968C35.9996 30.6865 35.9522 30.8762 35.9047 31.1134L35.4779 32.5363H34.9561L34.5293 31.2556C34.4344 31.0185 34.387 30.7813 34.3395 30.5442C34.3395 30.7813 34.2921 31.0185 34.2447 31.2556L34.1024 32.5363H33.5332L33.9601 29.7379H34.5767L35.051 31.1608C35.0984 31.3505 35.1459 31.5402 35.1933 31.73C35.2407 31.4928 35.2881 31.3505 35.3356 31.1608L35.8099 29.6904H36.4265L36.8534 32.4888H36.3316Z" fill="#BC382E"/>
<path d="M38.0869 32.4888V29.6904H39.6047V30.1647H38.6087V30.8288H39.5573V31.2556H38.6087V32.0145H39.6047V32.4888H38.0869Z" fill="#BC382E"/>
<path d="M42.5457 32.4889L41.7394 31.066C41.5971 30.8763 41.5022 30.6391 41.4548 30.4494C41.4548 30.6865 41.5022 31.1134 41.5022 31.4454V32.4415H40.9805V29.6431H41.6919L42.4508 30.9711C42.5931 31.2083 42.688 31.398 42.7828 31.6352C42.7828 31.3506 42.7354 30.8288 42.7354 30.4968V29.6431H43.2571V32.4415H42.5457V32.4889Z" fill="#BC382E"/>
<path d="M45.6287 30.1174V32.4889H45.107V30.1174H44.3955V29.6431H46.3876V30.1174H45.6287Z" fill="#BC382E"/>
<path d="M16.4584 36.6154C15.4623 36.6154 15.1777 35.9514 15.1777 35.24C15.1777 34.3388 15.652 33.7222 16.6007 33.7222C16.7904 33.7222 17.0275 33.7222 17.2173 33.817L17.1698 34.2913C16.9801 34.2439 16.7904 34.1965 16.6007 34.1965C16.0789 34.1965 15.8418 34.5759 15.8418 35.1451C15.8418 35.7617 16.0789 36.0937 16.6481 36.0937C16.8378 36.0937 17.0275 36.0463 17.1698 35.9988L17.2173 36.4732C16.9801 36.568 16.743 36.6154 16.4584 36.6154Z" fill="#134B8E"/>
<path d="M19.5414 36.6154C18.6876 36.6154 18.2607 36.0937 18.2607 35.1925C18.2607 34.2439 18.8773 33.7222 19.6362 33.7222C20.3951 33.7222 20.9169 34.149 20.9169 35.1451C20.9169 36.0463 20.3003 36.6154 19.5414 36.6154ZM19.5888 34.1965C19.2094 34.1965 18.8299 34.4811 18.8299 35.1451C18.8299 35.7617 19.0671 36.1411 19.5888 36.1411C19.9683 36.1411 20.3477 35.8566 20.3477 35.1925C20.3003 34.5285 20.0631 34.1965 19.5888 34.1965Z" fill="#134B8E"/>
<path d="M23.0518 36.6154C22.1507 36.6154 21.9609 36.1411 21.9609 35.6193V33.7695H22.4827V35.5719C22.4827 35.9039 22.5775 36.1885 23.0518 36.1885C23.4787 36.1885 23.621 35.9988 23.621 35.5245V33.7695H24.1428V35.477C24.2376 36.2359 23.8107 36.6154 23.0518 36.6154Z" fill="#134B8E"/>
<path d="M26.9404 36.568L26.1815 35.4296V36.568H25.6123V33.7695C25.8495 33.7695 26.0866 33.7695 26.4186 33.7695C27.0352 33.7695 27.4147 34.0067 27.4147 34.5759C27.4147 35.0027 27.1301 35.2873 26.7032 35.3348C26.7981 35.4296 26.8455 35.5245 26.9404 35.6668L27.6044 36.6154H26.9404V36.568ZM26.3712 34.1964C26.2763 34.1964 26.2289 34.1964 26.1815 34.1964V35.0027C26.2289 35.0027 26.2763 35.0027 26.3712 35.0027C26.7032 35.0027 26.8929 34.813 26.8929 34.5759C26.8929 34.3387 26.7032 34.1964 26.3712 34.1964Z" fill="#134B8E"/>
<path d="M30.5462 36.568L30.3565 35.9988H29.313L29.1233 36.568H28.6016L29.5976 33.7695H30.2142L31.2103 36.568H30.5462ZM29.9296 34.813C29.8822 34.6707 29.8348 34.5284 29.7873 34.3861C29.7399 34.5284 29.6925 34.7181 29.645 34.8604L29.4553 35.5719H30.2142L29.9296 34.813Z" fill="#134B8E"/>
<path d="M34.2454 34.3388C34.0083 34.2439 33.7711 34.1965 33.4865 34.1965C32.9174 34.1965 32.5379 34.5285 32.5379 35.1925C32.5379 35.8091 32.8699 36.1411 33.4391 36.1411C33.5814 36.1411 33.6763 36.1411 33.8186 36.0937V35.0977H34.3403V36.4257C34.0557 36.5206 33.7237 36.6154 33.3917 36.6154C32.4905 36.6154 31.9688 36.0937 31.9688 35.24C31.9688 34.3388 32.5853 33.7222 33.534 33.7222C33.8186 33.7222 34.1031 33.7696 34.3403 33.817L34.2454 34.3388Z" fill="#134B8E"/>
<path d="M35.7158 36.568V33.7695H37.2336V34.2438H36.2376V34.9079H37.1862V35.3348H36.2376V36.0936H37.2336V36.568H35.7158Z" fill="#134B8E"/>
<path d="M39.6527 36.6154C38.7989 36.6154 38.3721 36.0937 38.3721 35.1925C38.3721 34.2439 38.9887 33.7222 39.7476 33.7222C40.5065 33.7222 41.0282 34.149 41.0282 35.1451C41.0282 36.0463 40.4116 36.6154 39.6527 36.6154ZM39.7001 34.1965C39.3207 34.1965 38.9412 34.4811 38.9412 35.1451C38.9412 35.7617 39.1784 36.1411 39.7001 36.1411C40.0796 36.1411 40.459 35.8566 40.459 35.1925C40.459 34.5285 40.1744 34.1965 39.7001 34.1965Z" fill="#134B8E"/>
<path d="M43.1612 36.6154C42.26 36.6154 42.0703 36.1411 42.0703 35.6193V33.7695H42.5921V35.5719C42.5921 35.9039 42.7343 36.1885 43.1612 36.1885C43.5881 36.1885 43.7304 35.9988 43.7304 35.5245V33.7695H44.2521V35.477C44.2996 36.2359 43.8727 36.6154 43.1612 36.6154Z" fill="#134B8E"/>
<path d="M46.0078 36.615C45.8181 36.615 45.6283 36.615 45.4386 36.5676L45.486 36.0459C45.6283 36.0933 45.8655 36.1407 46.0552 36.1407C46.3398 36.1407 46.5295 36.0459 46.5295 35.7613C46.5295 35.2395 45.3438 35.4767 45.3438 34.5281C45.3438 34.0063 45.7232 33.6743 46.4347 33.6743C46.577 33.6743 46.7667 33.6743 46.9564 33.7217L46.909 34.1961C46.7667 34.1486 46.577 34.1012 46.3872 34.1012C46.0552 34.1012 45.9129 34.2435 45.9129 34.4332C45.9129 34.9549 47.0987 34.7652 47.0987 35.619C47.0987 36.2356 46.6718 36.615 46.0078 36.615Z" fill="#134B8E"/>
<path d="M3.65185 7.91958V6.68638H2.46608V7.91958H1.94434V5.07373H2.46608V6.21207H3.65185V5.07373H4.17359V7.87215H3.65185V7.91958Z" fill="#BC382E"/>
<path d="M6.54528 7.96701C5.69153 7.96701 5.26465 7.39784 5.26465 6.54409C5.26465 5.59547 5.88125 5.07373 6.64014 5.07373C7.39904 5.07373 7.92078 5.50061 7.92078 6.49666C7.92078 7.39784 7.30417 7.96701 6.54528 7.96701ZM6.59271 5.54804C6.21326 5.54804 5.83382 5.88005 5.83382 6.49666C5.83382 7.11326 6.07097 7.4927 6.59271 7.4927C6.97216 7.4927 7.3516 7.20812 7.3516 6.54409C7.3516 5.88005 7.06702 5.54804 6.59271 5.54804Z" fill="#BC382E"/>
<path d="M10.6722 7.91958L9.86589 6.49666C9.7236 6.30693 9.62874 6.06978 9.58131 5.88005C9.58131 6.11721 9.58131 6.54409 9.58131 6.8761V7.87215H9.05957V5.07373H9.77103L10.5774 6.40179C10.7196 6.63895 10.8145 6.82867 10.9094 7.06583C10.9094 6.78124 10.8619 6.30693 10.8619 5.92749V5.07373H11.3837V7.87215H10.6722V7.91958Z" fill="#BC382E"/>
<path d="M13.8021 7.96701C12.9484 7.96701 12.5215 7.39784 12.5215 6.54409C12.5215 5.59547 13.1381 5.07373 13.897 5.07373C14.6559 5.07373 15.1776 5.50061 15.1776 6.49666C15.1776 7.39784 14.561 7.96701 13.8021 7.96701ZM13.8495 5.54804C13.4701 5.54804 13.0907 5.88005 13.0907 6.49666C13.0907 7.11326 13.3278 7.4927 13.8495 7.4927C14.229 7.4927 14.6084 7.20812 14.6084 6.54409C14.6084 5.88005 14.3239 5.54804 13.8495 5.54804Z" fill="#BC382E"/>
<path d="M17.6918 7.91958L16.9329 6.78124V7.91958H16.4111V5.07373C16.6483 5.07373 16.8854 5.07373 17.2175 5.07373C17.8341 5.07373 18.2609 5.31088 18.2609 5.88005C18.2609 6.30693 17.9764 6.59152 17.5495 6.63895C17.6443 6.73381 17.6918 6.82867 17.7866 6.97096L18.4507 7.91958H17.6918ZM17.0752 5.50061C16.9803 5.50061 16.9329 5.50061 16.8854 5.50061V6.30693C16.9329 6.30693 16.9803 6.30693 17.0752 6.30693C17.4072 6.30693 17.5969 6.11721 17.5969 5.88005C17.5969 5.6429 17.4072 5.50061 17.0752 5.50061Z" fill="#BC382E"/>
<path d="M21.2015 7.91951L21.0118 7.35034H19.9683L19.7786 7.91951H19.2568L20.2529 5.12109H20.8695L21.8655 7.91951H21.2015ZM20.6323 6.16457C20.5849 6.02228 20.5375 5.87999 20.49 5.73769C20.4426 5.87999 20.3952 6.02228 20.3477 6.212L20.1106 6.92347H20.8695L20.6323 6.16457Z" fill="#BC382E"/>
<path d="M23.6677 7.91951C23.4779 7.91951 23.1933 7.91951 22.8613 7.91951V5.12109C23.0985 5.12109 23.4779 5.12109 23.8099 5.12109C24.4265 5.12109 24.7586 5.35825 24.7586 5.83256C24.7586 6.11714 24.5688 6.3543 24.3317 6.44916C24.6637 6.49659 24.806 6.78117 24.806 7.06576C24.806 7.4452 24.5214 7.91951 23.6677 7.91951ZM23.7151 5.50054C23.6202 5.50054 23.4779 5.50054 23.3831 5.50054V6.212C23.4305 6.212 23.5254 6.212 23.6202 6.212C23.9997 6.212 24.1894 6.06971 24.1894 5.83256C24.1894 5.64283 24.0471 5.50054 23.7151 5.50054ZM23.6202 6.68631C23.5728 6.68631 23.4305 6.68631 23.3831 6.68631V7.49264C23.4305 7.49264 23.5728 7.49264 23.6677 7.49264C23.9997 7.49264 24.1894 7.35034 24.1894 7.06576C24.2368 6.78117 23.9997 6.68631 23.6202 6.68631Z" fill="#BC382E"/>
<path d="M25.9443 7.91958V5.07373H26.4661V7.39784H27.3673V7.87215H25.9443V7.91958Z" fill="#BC382E"/>
<path d="M28.4111 7.91958V5.07373H29.9289V5.54804H28.9329V6.2595H29.8815V6.68638H28.9329V7.44527H29.9289V7.91958H28.4111Z" fill="#BC382E"/>
<path d="M19.6367 44.7735V41.9751H20.1585V44.7735H19.6367Z" fill="#134B8E"/>
<path d="M23.3357 44.7735L22.5294 43.3506C22.3871 43.1609 22.2922 42.9237 22.2448 42.734C22.2448 42.9711 22.2922 43.398 22.2922 43.7775V44.7735H21.7705V41.9751H22.482L23.2409 43.3032C23.3832 43.5403 23.478 43.73 23.5729 43.9672C23.5729 43.6826 23.5254 43.2083 23.5254 42.8289V41.9751H24.0472V44.7735H23.3357Z" fill="#134B8E"/>
<path d="M26.2771 42.4016V44.7257H25.7554V42.4016H25.0439V41.9272H27.036V42.4016H26.2771Z" fill="#134B8E"/>
<path d="M28.127 44.7735V41.9751H29.6447V42.4494H28.6487V43.1609H29.5973V43.5877H28.6487V44.3466H29.6447V44.8209H28.127V44.7735Z" fill="#134B8E"/>
<path d="M33.0599 42.5438C32.8227 42.449 32.5856 42.4016 32.301 42.4016C31.7318 42.4016 31.3524 42.7336 31.3524 43.3976C31.3524 44.0142 31.6844 44.3462 32.2536 44.3462C32.3959 44.3462 32.4907 44.3462 32.633 44.2988V43.3027H33.1547V44.6308C32.8702 44.7257 32.5381 44.8205 32.2061 44.8205C31.3049 44.8205 30.7832 44.2988 30.7832 43.445C30.7832 42.5438 31.3998 41.9272 32.3484 41.9272C32.633 41.9272 32.9176 41.9747 33.1547 42.0695L33.0599 42.5438Z" fill="#134B8E"/>
<path d="M35.8578 44.7735L35.0989 43.6352V44.7735H34.5771V41.9751C34.8143 41.9751 35.0515 41.9751 35.3835 41.9751C36.0001 41.9751 36.3795 42.2123 36.3795 42.7814C36.3795 43.2083 36.0949 43.4929 35.6681 43.5403C35.7629 43.6352 35.8103 43.73 35.9052 43.8723L36.5692 44.8209H35.8578V44.7735ZM35.2886 42.3545C35.1937 42.3545 35.1463 42.3545 35.0515 42.3545V43.1609C35.0989 43.1609 35.1463 43.1609 35.2412 43.1609C35.5732 43.1609 35.7629 42.9711 35.7629 42.734C35.7629 42.4968 35.6206 42.3545 35.2886 42.3545Z" fill="#134B8E"/>
<path d="M37.6602 44.7735V41.9751H38.1819V44.7735H37.6602Z" fill="#134B8E"/>
<path d="M40.5066 42.4016V44.7257H39.9849V42.4016H39.2734V41.9272H41.2655V42.4016H40.5066Z" fill="#134B8E"/>
<path d="M43.3048 43.7775V44.7735H42.783V43.7775L41.8818 41.9751H42.451L42.8305 42.7814C42.9253 42.9237 42.9727 43.1134 43.0202 43.2557C43.0676 43.1134 43.1625 42.9237 43.2573 42.734L43.5893 41.9751H44.1585L43.3048 43.7775Z" fill="#134B8E"/>
<path d="M22.4818 48.8526H21.8652L20.8691 46.0542H21.4383L21.96 47.7143C22.0075 47.8566 22.0549 48.0463 22.1498 48.2835C22.1972 48.0937 22.2446 47.9514 22.3395 47.7143L22.9087 46.1016H23.4778L22.4818 48.8526Z" fill="#BC382E"/>
<path d="M25.9921 48.8526L25.8024 48.2835H24.7589L24.5692 48.8526H24L24.996 46.0542H25.6126L26.6087 48.8526H25.9921ZM25.4229 47.0977C25.3755 46.9554 25.3281 46.8131 25.2806 46.6708C25.2332 46.8131 25.1858 46.9554 25.1383 47.1451L24.9012 47.8566H25.7075L25.4229 47.0977Z" fill="#BC382E"/>
<path d="M27.5566 48.8526V46.0542H28.0784V48.3783H28.9796V48.8526H27.5566Z" fill="#BC382E"/>
<path d="M30.2129 48.8526V46.0542H30.7346V48.8526H30.2129Z" fill="#BC382E"/>
<path d="M33.8177 48.8526L33.628 48.2835H32.5845L32.3948 48.8526H31.873L32.8691 46.0542H33.4857L34.4817 48.8526H33.8177ZM33.2485 47.0977C33.2011 46.9554 33.1537 46.8131 33.1063 46.6708C33.0588 46.8131 33.0114 46.9554 32.964 47.1451L32.7268 47.8566H33.4857L33.2485 47.0977Z" fill="#BC382E"/>
<path d="M36.9486 48.8522L36.1423 47.4293C36 47.2395 35.9051 47.0024 35.8577 46.8127C35.8577 47.0498 35.8577 47.4767 35.8577 47.8087V48.8048H35.3359V46.0063H36.0474L36.8063 47.3344C36.9486 47.5716 37.0434 47.7613 37.1383 47.9984C37.1383 47.7139 37.0909 47.1921 37.0909 46.8601V46.0063H37.6126V48.8048H36.9486V48.8522Z" fill="#BC382E"/>
<path d="M39.9369 46.5285V48.9H39.3677V46.5285H38.6562V46.0542H40.6483V46.5285H39.9369Z" fill="#BC382E"/>
<path d="M4.64854 11.9986C4.36396 11.9986 4.1268 11.9986 3.88965 11.9986V9.2002C4.1268 9.2002 4.45882 9.2002 4.79083 9.2002C5.64459 9.2002 6.21376 9.57964 6.21376 10.5757C6.21376 11.5243 5.54973 11.9986 4.64854 11.9986ZM4.7434 9.62707C4.60111 9.62707 4.50625 9.62707 4.41139 9.62707V11.5243C4.50625 11.5243 4.60111 11.5243 4.69597 11.5243C5.21771 11.5243 5.59716 11.2397 5.59716 10.5757C5.59716 10.0065 5.40744 9.62707 4.7434 9.62707Z" fill="#134B8E"/>
<path d="M7.25684 11.9986V9.2002H8.77462V9.6745H7.77857V10.386H8.72719V10.8128H7.77857V11.5717H8.77462V12.046H7.25684V11.9986Z" fill="#134B8E"/>
<path d="M10.7673 11.9986C10.4827 11.9986 10.2455 11.9986 9.96094 11.9986V9.2002C10.1981 9.2002 10.5301 9.2002 10.8621 9.2002C11.7159 9.2002 12.285 9.57964 12.285 10.5757C12.3325 11.5243 11.6684 11.9986 10.7673 11.9986ZM10.8621 9.62707C10.7198 9.62707 10.625 9.62707 10.5301 9.62707V11.5243C10.625 11.5243 10.7198 11.5243 10.8147 11.5243C11.3364 11.5243 11.7159 11.2397 11.7159 10.5757C11.7159 10.0065 11.4787 9.62707 10.8621 9.62707Z" fill="#134B8E"/>
<path d="M13.4707 11.9986V9.2002H13.9924V11.9986H13.4707Z" fill="#134B8E"/>
<path d="M16.6009 12.0461C15.6049 12.0461 15.3203 11.3821 15.3203 10.6706C15.3203 9.76943 15.7946 9.15283 16.7432 9.15283C16.933 9.15283 17.1701 9.20026 17.3598 9.24769L17.3124 9.722C17.1227 9.67457 16.933 9.62714 16.7432 9.62714C16.2215 9.62714 15.9843 10.0066 15.9843 10.5758C15.9843 11.1924 16.2215 11.5244 16.7907 11.5244C16.9804 11.5244 17.1701 11.4769 17.3598 11.4295L17.4073 11.9038C17.1227 11.9987 16.8381 12.0461 16.6009 12.0461Z" fill="#134B8E"/>
<path d="M20.2064 11.9986L20.0167 11.4294H18.9732L18.7835 11.9986H18.2617L19.2578 9.2002H19.8744L20.8704 11.9986H20.2064ZM19.5898 10.2437C19.5424 10.1014 19.4949 9.95909 19.4475 9.8168C19.4001 9.95909 19.3526 10.1014 19.3052 10.2911L19.068 11.0026H19.8269L19.5898 10.2437Z" fill="#134B8E"/>
<path d="M22.5779 9.6745V11.9986H22.0562V9.6745H21.3447V9.2002H23.3368V9.6745H22.5779Z" fill="#134B8E"/>
<path d="M24.4277 11.9986V9.2002H25.9455V9.6745H24.9495V10.386H25.8981V10.8128H24.9495V11.5717H25.9455V12.046H24.4277V11.9986Z" fill="#134B8E"/>
<path d="M27.9845 11.9986C27.6999 11.9986 27.4627 11.9986 27.2256 11.9986V9.2002C27.4627 9.2002 27.7948 9.2002 28.1268 9.2002C28.9805 9.2002 29.5497 9.57964 29.5497 10.5757C29.5497 11.5243 28.8857 11.9986 27.9845 11.9986ZM28.0793 9.62707C27.937 9.62707 27.8422 9.62707 27.7473 9.62707V11.5243C27.8422 11.5243 27.937 11.5243 28.0319 11.5243C28.5536 11.5243 28.9331 11.2397 28.9331 10.5757C28.9331 10.0065 28.6959 9.62707 28.0793 9.62707Z" fill="#134B8E"/>
<path d="M42.7833 3.79312L42.5936 2.46505C42.5462 2.18047 42.5462 1.99074 42.4988 1.80102C42.4513 1.99074 42.4039 2.18047 42.3565 2.41762L41.9296 3.84055H41.4079L40.981 2.55991C40.8861 2.32276 40.8387 2.08561 40.7913 1.84845C40.7913 2.08561 40.7438 2.32276 40.6964 2.55991L40.5067 3.79312H39.9375L40.3644 0.994696H40.981L41.4553 2.41762C41.5027 2.60734 41.5501 2.79707 41.5976 2.98679C41.645 2.74964 41.6924 2.60734 41.7399 2.41762L42.2142 0.947266H42.8308L43.3525 3.79312H42.7833Z" fill="#134B8E"/>
<path d="M44.5859 3.79305V0.994629H45.1077V3.79305H44.5859Z" fill="#134B8E"/>
<path d="M47.0049 3.84061C46.8151 3.84061 46.6254 3.84061 46.4357 3.79318L46.4831 3.27144C46.6254 3.31887 46.8626 3.36631 47.0523 3.36631C47.3369 3.36631 47.5266 3.27144 47.5266 2.98686C47.5266 2.46512 46.3408 2.70227 46.3408 1.75366C46.3408 1.23192 46.7203 0.899902 47.3843 0.899902C47.5266 0.899902 47.7163 0.899902 47.906 0.947333L47.8586 1.42164C47.7637 1.42164 47.574 1.42164 47.4317 1.42164C47.0997 1.42164 46.9574 1.56393 46.9574 1.75366C46.9574 2.2754 48.1432 2.08567 48.1432 2.93943C48.0958 3.46117 47.7163 3.84061 47.0049 3.84061Z" fill="#134B8E"/>
<path d="M49.8974 3.84061C49.7077 3.84061 49.518 3.84061 49.3283 3.79318L49.3757 3.27144C49.518 3.31887 49.7551 3.36631 49.9449 3.36631C50.2294 3.36631 50.4192 3.27144 50.4192 2.98686C50.4192 2.46512 49.2334 2.70227 49.2334 1.75366C49.2334 1.23192 49.6128 0.899902 50.3243 0.899902C50.4666 0.899902 50.6563 0.899902 50.846 0.947333L50.7986 1.42164C50.6563 1.42164 50.4666 1.42164 50.2769 1.42164C49.9449 1.42164 49.8026 1.56393 49.8026 1.75366C49.8026 2.2754 50.9883 2.08567 50.9883 2.93943C50.9883 3.46117 50.6089 3.84061 49.8974 3.84061Z" fill="#134B8E"/>
<path d="M52.2695 3.79305V0.994629H52.7913V3.79305H52.2695Z" fill="#134B8E"/>
<path d="M55.3529 3.84055C54.4991 3.84055 54.0723 3.31881 54.0723 2.41762C54.0723 1.469 54.6889 0.947266 55.4478 0.947266C56.2067 0.947266 56.7284 1.37414 56.7284 2.37019C56.7284 3.27138 56.1118 3.84055 55.3529 3.84055ZM55.4003 1.42157C55.0209 1.42157 54.6414 1.75359 54.6414 2.37019C54.6414 2.98679 54.8786 3.36624 55.4003 3.36624C55.7798 3.36624 56.1592 3.08165 56.1592 2.41762C56.1592 1.80102 55.8746 1.42157 55.4003 1.42157Z" fill="#134B8E"/>
<path d="M59.5267 3.79305L58.7204 2.37012C58.5781 2.13297 58.4832 1.94325 58.4358 1.75352C58.4358 1.99068 58.4358 2.41755 58.4358 2.74957V3.79305H57.9141V0.994629H58.6255L59.4319 2.32269C59.5741 2.55985 59.669 2.74957 59.7639 2.98672C59.7639 2.70214 59.7164 2.22783 59.7164 1.84838V0.994629H60.2382V3.79305H59.5267Z" fill="#134B8E"/>
</svg>
